<svg version="1.1" id="Layer_1" xmlns="http://www.w3.org/2000/svg" xmlns:xlink="http://www.w3.org/1999/xlink" x="0px" y="0px"
	 width="100%" viewBox="0 0 500 500" enable-background="new 0 0 500 500" xml:space="preserve">
<path fill="#010101" opacity="1.000000" stroke="none" 
	d="
M286.000000,501.000000 
	C190.666687,501.000000 95.833382,501.000000 1.000051,501.000000 
	C1.000034,334.333405 1.000034,167.666794 1.000017,1.000140 
	C167.666565,1.000094 334.333130,1.000094 500.999756,1.000047 
	C500.999847,167.666519 500.999847,334.333038 500.999939,500.999786 
	C429.500000,501.000000 358.000000,501.000000 286.000000,501.000000 
M137.082199,174.705688 
	C137.483704,175.171661 137.885208,175.637619 138.154251,176.837570 
	C134.463806,185.568802 130.773361,194.300034 126.433670,202.937546 
	C125.642303,202.517319 124.850929,202.097107 122.421608,200.807114 
	C123.367836,204.155792 123.936890,206.169647 124.341637,208.813354 
	C124.161034,209.207794 123.980431,209.602219 123.233742,210.088943 
	C123.203308,210.742264 123.172874,211.395584 123.115013,212.783417 
	C121.605141,216.300415 120.095261,219.817398 118.344002,223.896667 
	C123.800339,223.896667 128.121719,223.897034 132.443100,223.896606 
	C146.111435,223.895264 145.864136,223.798111 150.822281,211.162094 
	C154.442184,201.936646 158.821915,193.009323 163.484390,183.910843 
	C163.585968,183.248337 163.687561,182.585815 163.866867,181.160309 
	C164.841263,178.807068 165.815674,176.453812 167.625046,174.059799 
	C174.084641,174.042389 180.544220,174.024979 187.180573,174.331589 
	C187.451965,174.226547 187.723358,174.121506 188.796204,173.990005 
	C189.864716,174.016663 190.933243,174.043304 192.274445,174.996124 
	C192.434006,175.275635 192.593582,175.555130 192.708313,176.510880 
	C191.841690,178.353714 190.975052,180.196564 189.478012,182.091278 
	C189.427490,182.767426 189.376984,183.443558 189.213333,184.843140 
	C186.437988,191.228027 183.662628,197.612930 180.177505,204.016647 
	C179.626953,204.383972 179.076401,204.751297 178.525848,205.118622 
	C178.971985,205.460922 179.418121,205.803207 179.816422,206.940186 
	C177.471909,212.422272 175.127380,217.904343 172.568787,223.886978 
	C178.748230,223.886978 183.884598,223.886292 189.020981,223.887115 
	C200.475449,223.888947 200.137726,223.754868 204.488846,212.819672 
	C209.676636,199.781799 215.518265,187.004089 221.716797,174.094254 
	C222.143341,174.091690 222.569870,174.089111 223.036697,174.560181 
	C223.195633,174.805252 223.354568,175.050339 223.513489,175.295410 
	C223.676514,174.886581 223.839523,174.477753 224.938278,174.021851 
	C231.626862,174.016846 238.315430,174.011841 245.288818,174.457199 
	C245.770828,174.644028 246.252838,174.830856 246.838303,175.502151 
	C246.838303,175.502151 247.022217,175.962143 246.926071,176.655869 
	C240.258820,192.267548 233.591583,207.879227 226.755035,223.887344 
	C234.612579,223.887344 241.779877,223.648193 248.920135,223.983826 
	C252.741013,224.163406 254.520752,222.726654 255.930969,219.339661 
	C262.238373,204.190720 268.781647,189.139984 275.929596,174.082001 
	C276.619415,174.065109 277.309204,174.048218 278.082581,174.616028 
	C278.721619,174.417175 279.360687,174.218323 280.936279,173.996109 
	C287.289246,174.022095 293.642242,174.048080 300.069977,174.689468 
	C300.443512,175.148895 300.817078,175.608337 301.101929,176.799606 
	C294.456360,192.368561 287.810791,207.937500 281.011444,223.866791 
	C285.900452,223.866791 290.120636,223.406601 294.204132,223.958313 
	C304.060242,225.289948 310.162170,222.823074 313.474609,212.067871 
	C317.499115,199.000854 323.898895,186.665405 330.173462,174.055725 
	C338.763977,174.061066 347.354492,174.066391 356.065918,174.805923 
	C349.241150,190.930328 342.416382,207.054718 335.299988,223.868057 
	C344.101288,223.868057 352.187744,224.015747 360.257721,223.717133 
	C361.545380,223.669464 363.298645,221.859024 363.920685,220.457108 
	C368.558777,210.004135 373.026611,199.473923 377.418701,188.914230 
	C379.448029,184.035172 381.188110,179.035797 382.901947,173.172897 
	C373.969788,173.138260 365.037628,173.103622 355.157349,172.997604 
	C346.568451,172.726822 337.978180,172.195129 329.390991,172.241394 
	C313.201538,172.328629 297.014069,172.761551 280.825226,173.016129 
	C278.520081,173.052368 276.211914,172.894882 273.563599,173.095764 
	C273.563599,173.095764 273.134369,173.027481 272.186493,172.862900 
	C261.866150,172.921036 251.545853,172.986893 241.225479,173.034561 
	C234.417847,173.066010 227.610077,173.071320 219.901566,173.247208 
	C211.318466,173.171783 202.735382,173.096344 193.703018,172.381180 
	C184.412079,172.601746 175.121155,172.822296 164.930862,173.235107 
	C156.378830,173.273376 147.826782,173.311646 138.893951,172.633362 
	C131.652039,172.702698 124.410118,172.772049 116.763741,172.380753 
	C116.168030,172.321609 115.572327,172.262451 114.047951,172.050491 
	C103.297615,172.031738 92.546822,172.058960 81.797371,171.951416 
	C79.884232,171.932281 77.976692,171.353851 75.530174,171.012466 
	C75.351295,171.008316 75.172409,171.004166 74.883720,170.449707 
	C74.606049,169.989594 74.328377,169.529480 73.922569,168.396790 
	C73.237366,167.972610 72.552170,167.548416 71.866966,167.124237 
	C71.689850,167.502060 71.512726,167.879883 71.335609,168.257706 
	C72.247200,168.520660 73.158791,168.783630 73.968933,169.795792 
	C71.305687,175.199249 68.642448,180.602707 66.003929,186.005585 
	C66.003929,186.005585 66.014030,185.983017 65.190750,185.951172 
	C62.739895,186.402252 60.289040,186.853333 57.224983,187.191330 
	C56.816475,187.114716 56.407967,187.038101 55.882442,186.272354 
	C52.070091,184.628677 51.799202,178.818405 46.748116,178.494934 
	C46.326923,178.467957 45.693653,176.894043 45.691708,176.037659 
	C45.684116,172.698059 45.891113,169.357986 46.715481,165.929871 
	C51.113228,162.918777 55.510979,159.907684 60.918282,156.205368 
	C51.899250,154.795197 54.476372,148.935883 53.595974,142.877090 
	C55.730499,145.153732 56.854477,146.352554 58.569443,148.181717 
	C58.569443,144.765060 58.569443,142.119598 58.569443,139.280624 
	C60.418503,139.102173 62.046059,138.945099 63.745636,138.938187 
	C63.745636,138.938187 63.853153,139.065369 63.407906,139.873718 
	C64.009232,141.165344 64.610550,142.456985 65.211868,143.748611 
	C65.755829,142.610794 66.299789,141.472977 67.498146,140.024033 
	C75.338631,138.122559 83.179115,136.221085 91.129440,134.292969 
	C89.628265,131.826126 88.438904,129.871689 87.606178,127.159660 
	C86.736839,126.440239 85.867500,125.720818 84.422630,124.658958 
	C83.454720,123.156593 82.486809,121.654221 82.306801,120.075592 
	C83.556503,119.069489 84.806206,118.063385 86.820320,117.052986 
	C89.562225,118.841072 92.045555,121.448181 95.844612,119.455177 
	C98.136192,118.253014 100.610016,117.385475 102.849609,116.101799 
	C104.167023,115.346695 105.186157,114.071213 106.936028,113.450432 
	C107.908058,114.579163 108.960083,115.649109 109.839508,116.845894 
	C117.175713,126.829445 124.480141,136.836334 131.024216,147.063431 
	C130.484467,148.109039 129.944702,149.154633 129.404953,150.200256 
	C130.658981,150.019516 131.913010,149.838776 133.836792,149.975952 
	C134.272751,150.553558 134.708725,151.131149 134.323196,151.988266 
	C130.332642,158.644409 119.593262,160.290222 114.862503,154.361343 
	C114.527641,156.548660 114.263847,158.271774 113.335243,160.363235 
	C105.298988,162.274948 97.262733,164.186676 88.473763,165.974289 
	C87.146881,165.850021 85.820007,165.725754 84.493126,165.601486 
	C84.669586,166.405502 84.846054,167.209503 85.442474,168.685287 
	C90.171181,167.798080 94.937599,167.073090 99.619514,165.984619 
	C106.195312,164.455826 112.708328,162.656998 120.006027,160.865311 
	C121.608879,160.576965 123.263123,160.452393 124.804649,159.968628 
	C128.931335,158.673553 133.009720,157.224487 137.964630,155.877151 
	C141.144089,155.287537 144.327728,154.719498 147.502075,154.103546 
	C152.943268,153.047729 158.378632,151.961960 164.609573,150.974426 
	C171.500717,149.239365 178.409912,147.571716 185.272842,145.731445 
	C187.568481,145.115860 189.745895,144.059479 192.803818,142.956284 
	C201.028336,141.295883 209.252838,139.635498 218.068283,137.855820 
	C206.828232,122.558746 195.908722,107.697906 185.017853,92.876030 
	C176.383545,94.898239 167.659531,96.941460 158.149384,98.997849 
	C149.601852,101.050919 141.054337,103.103989 131.778290,105.455917 
	C122.971687,107.563599 114.165085,109.671280 104.529091,111.916374 
	C98.334312,113.591675 92.139526,115.266983 85.022003,116.981979 
	C83.467072,117.050156 81.912148,117.118340 79.699341,117.491676 
	C75.151077,118.615784 70.602264,119.737694 66.054756,120.864822 
	C63.221470,121.567070 60.340000,122.126068 57.577362,123.042419 
	C56.003006,123.564621 54.624065,124.675949 53.072628,126.360466 
	C54.178543,130.147720 55.428833,133.902100 56.303078,137.742081 
	C56.568001,138.905762 55.904427,141.389374 55.477020,141.433411 
	C50.258896,141.971191 51.225128,145.201447 51.954384,148.592575 
	C52.640884,151.784897 53.039547,155.039139 53.564838,158.266129 
	C53.160175,158.007751 52.755516,157.749374 52.350853,157.490997 
	C50.228439,160.323502 48.106022,163.156021 45.303261,166.392426 
	C44.868587,169.576126 44.163521,172.750931 44.058369,175.945480 
	C43.868881,181.702103 46.335464,184.976288 52.190536,187.590805 
	C52.846413,187.740646 53.502289,187.890488 54.363857,188.018997 
	C54.363857,188.018997 54.567532,187.983185 55.167660,188.581253 
	C55.770206,189.966843 56.806938,191.326233 56.892376,192.743011 
	C57.130852,196.697662 56.975304,200.676086 56.975304,203.366776 
	C59.938805,205.405258 61.981918,206.810654 64.033447,209.022522 
	C64.370392,212.385757 64.707329,215.749008 65.092041,219.895813 
	C64.732674,221.365753 64.373299,222.835709 63.947639,224.576782 
	C67.709427,224.576782 70.941742,224.576782 74.082710,225.574280 
	C74.057114,282.460175 74.030457,339.346100 74.006691,396.231995 
	C74.000923,410.037750 73.950325,423.844055 74.087051,437.648438 
	C74.100906,439.047943 75.269814,440.436005 76.847069,441.930450 
	C182.268936,441.951599 287.690796,441.978271 393.112671,441.985718 
	C404.101898,441.986481 415.091095,441.873169 426.883636,441.772888 
	C427.250671,439.942108 427.936737,438.111664 427.938660,436.280487 
	C428.012665,365.833130 428.024078,295.385681 428.622742,224.385757 
	C430.886719,224.252457 433.170807,224.263077 435.409790,223.950607 
	C438.423309,223.530060 439.857391,222.062210 437.975464,218.055725 
	C437.971680,208.057251 437.967926,198.058777 438.065552,187.297226 
	C437.964661,183.318726 437.863770,179.340225 437.747345,174.628983 
	C436.354065,174.198074 434.970947,173.434631 433.565826,173.391769 
	C426.088074,173.163681 418.604858,173.116119 410.683075,172.364349 
	C402.554993,172.364349 394.426880,172.364349 386.298798,172.364349 
	C386.306244,172.934067 386.313721,173.503784 386.321167,174.073502 
	C394.243011,174.073502 402.164856,174.073502 410.090729,174.823944 
	C403.354218,190.970245 396.617706,207.116531 389.624115,223.879059 
	C397.878235,223.879059 405.475555,223.693817 413.056305,223.967758 
	C416.208710,224.081680 417.354858,222.671509 418.417023,220.110062 
	C423.153076,208.688446 428.052734,197.334625 433.501526,186.215164 
	C434.678711,186.814835 435.855865,187.414505 437.024445,188.948578 
	C437.013824,198.633118 437.003204,208.317657 436.261078,218.154709 
	C434.923828,220.836517 433.183533,222.603577 429.748444,222.149231 
	C428.475098,221.980820 427.046906,222.983017 425.689331,223.451355 
	C426.058960,223.951035 426.428589,224.450699 426.894104,225.888962 
	C426.918488,296.203003 426.948212,366.517029 426.929108,436.831055 
	C426.928741,438.248352 426.359375,439.665497 425.113586,441.010559 
	C310.069855,440.726807 195.026154,440.443085 80.068893,439.372833 
	C80.309319,438.070068 80.549744,436.767334 80.877792,434.989807 
	C78.471397,434.989807 76.849396,434.989807 75.096855,434.062653 
	C75.085106,367.832520 75.080429,301.602386 75.042542,235.372284 
	C75.040459,231.726212 74.762291,228.080307 75.390923,224.037018 
	C79.684654,223.994919 84.004356,224.207352 88.258072,223.773209 
	C89.754478,223.620468 91.710548,222.189026 92.386978,220.814865 
	C94.924126,215.660675 97.019249,210.288910 99.857239,205.010239 
	C100.242073,205.005402 100.626915,205.000565 101.943642,204.952087 
	C105.089775,204.946274 108.272415,204.634445 111.373703,205.004486 
	C116.352669,205.598541 117.497414,203.485214 117.325073,198.849518 
	C117.042809,191.256805 117.442619,183.638748 118.191200,176.006363 
	C119.127113,175.347504 120.063019,174.688629 121.932533,174.006851 
	C126.954018,174.026886 131.975510,174.046921 137.082199,174.705688 
M166.139023,379.526093 
	C166.130493,376.361420 166.230515,373.189880 166.030609,370.037354 
	C165.985458,369.325592 164.896042,368.680023 164.287338,368.004028 
	C163.619522,368.627899 162.576233,369.147949 162.368546,369.899048 
	C162.024597,371.142975 162.192490,372.535645 162.190628,373.865692 
	C162.181061,380.653107 162.186203,387.440521 162.186203,394.575073 
	C144.689728,394.575073 127.730354,394.515167 110.772598,394.652863 
	C108.713707,394.669617 106.663467,395.750763 104.609215,396.338623 
	C106.723038,397.043304 108.835533,398.358795 110.950867,398.363403 
	C164.085922,398.478668 217.221252,398.456635 270.356537,398.457367 
	C310.831879,398.457916 351.307251,398.472107 391.782501,398.408295 
	C393.735443,398.405212 395.687286,397.707977 397.639648,397.333984 
	C397.547180,396.570679 397.454742,395.807343 397.362305,395.044037 
	C378.350464,393.879669 359.247314,395.103912 339.899689,394.373413 
	C339.899689,392.119659 339.901062,390.314026 339.899445,388.508362 
	C339.894287,382.678406 339.979797,376.845581 339.795715,371.021271 
	C339.763428,369.999359 338.598602,369.013275 337.956818,368.010651 
	C337.263336,368.945190 336.256317,369.790344 335.957825,370.837433 
	C335.606232,372.070892 335.865326,373.479279 335.865082,374.811829 
	C335.863892,381.269470 335.864532,387.727081 335.864532,394.374908 
	C317.710663,394.374908 300.103943,394.374908 281.959229,394.374908 
	C281.959229,386.912079 282.071869,379.621277 281.864838,372.339569 
	C281.823090,370.871368 280.569519,369.437683 279.874664,367.988068 
	C279.247101,369.496307 278.117432,370.991302 278.077362,372.514984 
	C277.886505,379.772247 277.991943,387.037323 277.991943,394.316223 
	C259.712585,394.316223 242.116730,394.316223 224.316528,394.316223 
	C224.220215,392.938049 224.076645,391.803558 224.072235,390.668518 
	C224.047028,384.172333 224.155838,377.672913 223.952194,371.182953 
	C223.918274,370.102020 222.573273,369.062225 221.834091,368.003448 
	C221.246994,369.056091 220.405869,370.049011 220.140427,371.177338 
	C219.843216,372.440613 220.065216,373.826569 220.065048,375.159119 
	C220.064224,381.567810 220.064682,387.976501 220.064682,394.244629 
	C201.712265,394.244629 184.132721,394.244629 166.138687,394.244629 
	C166.138687,389.444305 166.138687,384.978607 166.139023,379.526093 
M127.499992,293.692719 
	C215.163452,293.692657 302.826935,293.693054 390.490387,293.689117 
	C392.156128,293.689026 393.888000,293.899963 395.460846,293.503723 
	C396.297455,293.293030 397.199463,292.066193 397.407440,291.147552 
	C397.519928,290.650818 396.337677,289.469177 395.556946,289.251648 
	C394.313141,288.904999 392.916901,289.078430 391.585144,289.078156 
	C363.419464,289.072601 335.253815,289.073578 307.088135,289.073273 
	C305.309692,289.073242 303.531281,289.073273 301.484039,289.073273 
	C301.484039,280.959900 301.570648,273.467041 301.393555,265.980377 
	C301.365997,264.815460 300.134460,263.679047 299.459656,262.529449 
	C298.785248,263.643341 297.841522,264.683563 297.511230,265.891541 
	C297.171875,267.132690 297.429749,268.537628 297.429596,269.870911 
	C297.428864,276.143951 297.429260,282.417023 297.429260,288.790070 
	C266.276489,288.790070 235.712341,288.790070 204.833054,288.790070 
	C204.833054,281.186768 204.925751,273.878510 204.750305,266.576660 
	C204.717499,265.211334 203.610382,263.871796 202.999039,262.520355 
	C202.199661,263.875244 200.752640,265.209717 200.709152,266.588440 
	C200.478699,273.895447 200.600891,281.213531 200.600891,289.084656 
	C198.660355,289.084656 197.033615,289.084808 195.406876,289.084625 
	C182.074020,289.083099 168.741150,289.080780 155.408295,289.080048 
	C139.908844,289.079193 124.408859,289.022186 108.910843,289.171234 
	C107.413445,289.185638 105.928352,290.480988 104.437553,291.181732 
	C105.958626,292.021057 107.447838,293.507538 109.006432,293.584290 
	C114.825340,293.870667 120.666992,293.695007 127.499992,293.692719 
M324.243439,60.108112 
	C321.991760,60.481682 319.740082,60.855255 316.744171,61.352299 
	C328.280792,77.078400 339.111755,91.842621 349.879059,106.520035 
	C358.606293,104.423264 367.151337,102.370262 376.223175,100.190704 
	C364.987000,84.879341 354.319244,70.342560 343.312653,55.344055 
	C337.401917,56.748169 331.200806,58.221260 324.243439,60.108112 
M383.860840,45.180367 
	C379.098969,46.570847 374.337097,47.961323 369.712982,49.311569 
	C380.464539,63.882477 391.090454,78.283180 402.383911,93.588524 
	C410.353271,91.922173 419.078247,90.097816 429.081787,88.006119 
	C417.917725,72.691849 406.926361,57.614456 395.956543,42.566662 
	C392.430695,43.491119 388.541321,44.510883 383.860840,45.180367 
M246.959503,130.673203 
	C254.754044,128.864487 262.548584,127.055763 270.734222,125.156288 
	C259.539520,109.967628 248.759003,95.340912 237.873840,80.572227 
	C229.266159,82.500381 220.656296,84.429024 211.320541,86.520264 
	C215.220520,91.833443 218.519196,96.365364 221.857681,100.867760 
	C228.948776,110.431061 236.029358,120.002693 243.224991,129.486877 
	C243.782959,130.222275 245.207947,130.299866 246.959503,130.673203 
M289.585175,108.907921 
	C291.587585,111.550644 293.438263,114.331581 295.662018,116.772652 
	C296.644135,117.850769 298.590393,119.087074 299.744659,118.804482 
	C307.499878,116.905769 315.159821,114.617874 323.167175,112.367149 
	C312.834167,98.214806 302.781982,84.307076 292.489014,70.579926 
	C291.526886,69.296791 288.881104,68.319603 287.292267,68.626266 
	C279.888214,70.055267 272.580963,71.985596 264.181396,73.988884 
	C272.587158,85.504829 280.901367,96.895325 289.585175,108.907921 
M225.499969,342.086670 
	C187.002777,342.088928 148.505508,342.066925 110.008560,342.168671 
	C108.181236,342.173492 106.356812,343.275604 104.531036,343.866730 
	C106.451630,344.584015 108.367264,345.315155 110.298088,346.003723 
	C110.593643,346.109131 110.959412,346.017334 111.292709,346.017334 
	C204.619217,346.018555 297.945740,346.019806 391.272247,346.020996 
	C392.438812,346.020996 393.708649,346.308563 394.742950,345.938477 
	C395.780640,345.567200 396.583496,344.539734 397.489319,343.799866 
	C396.620789,343.226532 395.819489,342.399017 394.866028,342.146881 
	C393.776093,341.858643 392.550781,342.083130 391.384308,342.083130 
	C347.220856,342.083313 303.057434,342.083282 258.893982,342.083282 
	C257.105591,342.083282 255.317200,342.083282 253.120773,342.083282 
	C253.120773,334.196899 253.213394,326.738953 253.033997,319.287537 
	C253.002319,317.971588 251.834946,316.682953 251.192047,315.381714 
	C250.423416,316.718689 249.029846,318.037354 248.990036,319.395660 
	C248.772018,326.835510 248.886108,334.285126 248.886108,342.086670 
	C241.098740,342.086670 233.799347,342.086670 225.499969,342.086670 
M87.981285,159.328613 
	C87.794296,157.661926 87.607307,155.995239 87.420319,154.328552 
	C85.976700,154.889648 84.533081,155.450760 83.089462,156.011856 
	C83.085258,156.513046 83.081055,157.014236 83.076851,157.515411 
	C84.503700,158.247559 85.930542,158.979691 87.981285,159.328613 
M98.952904,143.220551 
	C98.138611,141.938141 97.324318,140.655716 96.510017,139.373306 
	C95.855728,140.430252 95.201431,141.487198 94.547142,142.544159 
	C95.965836,143.005295 97.384529,143.466431 98.952904,143.220551 
M112.424072,148.399170 
	C113.101776,148.741440 113.779488,149.083694 115.683525,150.045288 
	C114.725388,146.998260 114.122826,145.082016 113.520271,143.165771 
	C112.953720,143.282227 112.387161,143.398666 111.820610,143.515106 
	C111.969070,144.944031 112.117523,146.372971 112.424072,148.399170 
M69.706207,149.955704 
	C73.097542,150.478439 74.639839,149.354538 73.631561,145.580902 
	C72.144104,146.969833 70.857613,148.171112 69.706207,149.955704 
M111.695869,139.364182 
	C111.351517,140.068588 111.007172,140.772980 110.662819,141.477386 
	C111.095741,141.564972 111.528671,141.652557 111.961594,141.740143 
	C112.085678,140.983536 112.209755,140.226944 111.695869,139.364182 
M78.473778,169.284927 
	C79.046509,169.396500 79.619247,169.508087 80.191978,169.619659 
	C80.197311,169.212067 80.202644,168.804459 80.207985,168.396866 
	C79.632469,168.494064 79.056961,168.591263 78.473778,169.284927 
M63.709881,154.554321 
	C63.988964,154.288254 64.268051,154.022202 64.547142,153.756149 
	C64.436882,153.640610 64.326622,153.525070 64.216354,153.409531 
	C63.937248,153.675903 63.658142,153.942291 63.709881,154.554321 
M110.557594,136.291306 
	C110.290047,136.010757 110.022507,135.730209 109.754951,135.449646 
	C109.638817,135.560532 109.522682,135.671402 109.406555,135.782288 
	C109.674416,136.062820 109.942268,136.343369 110.557594,136.291306 
M113.440239,151.705750 
	C113.708839,151.987152 113.977432,152.268555 114.246025,152.549957 
	C114.362450,152.438644 114.586227,152.236679 114.579819,152.229095 
	C114.329308,151.932404 114.057808,151.653427 113.440239,151.705750 
M68.554306,164.290115 
	C68.288246,164.011047 68.022186,163.731995 67.756126,163.452927 
	C67.640602,163.563187 67.418602,163.763275 67.424919,163.770767 
	C67.673225,164.065094 67.942322,164.341873 68.554306,164.290115 
M108.339180,131.349548 
	C108.670265,131.301636 109.001350,131.253708 109.332436,131.205795 
	C108.980812,131.112076 108.629196,131.018356 108.339180,131.349548 
M266.580963,200.516068 
	C266.580963,200.516068 266.477570,200.576096 266.580963,200.516068 
z"/>
<path fill="#F5F5F5" opacity="1.000000" stroke="none" 
	d="
M166.138855,380.019501 
	C166.138687,384.978607 166.138687,389.444305 166.138687,394.244629 
	C184.132721,394.244629 201.712265,394.244629 220.064682,394.244629 
	C220.064682,387.976501 220.064224,381.567810 220.065048,375.159119 
	C220.065216,373.826569 219.843216,372.440613 220.140427,371.177338 
	C220.405869,370.049011 221.246994,369.056091 221.834106,368.003448 
	C222.573273,369.062225 223.918274,370.102020 223.952194,371.182953 
	C224.155838,377.672913 224.047028,384.172333 224.072235,390.668518 
	C224.076645,391.803558 224.220215,392.938049 224.316528,394.316223 
	C242.116730,394.316223 259.712585,394.316223 277.991943,394.316223 
	C277.991943,387.037323 277.886505,379.772247 278.077362,372.514984 
	C278.117432,370.991302 279.247101,369.496307 279.874664,367.988068 
	C280.569519,369.437683 281.823090,370.871368 281.864838,372.339569 
	C282.071869,379.621277 281.959229,386.912079 281.959229,394.374908 
	C300.103943,394.374908 317.710663,394.374908 335.864532,394.374908 
	C335.864532,387.727081 335.863892,381.269470 335.865082,374.811829 
	C335.865326,373.479279 335.606232,372.070892 335.957825,370.837433 
	C336.256317,369.790344 337.263336,368.945190 337.956818,368.010651 
	C338.598602,369.013275 339.763428,369.999359 339.795715,371.021271 
	C339.979797,376.845581 339.894287,382.678406 339.899445,388.508362 
	C339.901062,390.314026 339.899689,392.119659 339.899689,394.373413 
	C359.247314,395.103912 378.350464,393.879669 397.362305,395.044037 
	C397.454742,395.807343 397.547180,396.570679 397.639648,397.333984 
	C395.687286,397.707977 393.735443,398.405212 391.782501,398.408295 
	C351.307251,398.472107 310.831879,398.457916 270.356537,398.457367 
	C217.221252,398.456635 164.085922,398.478668 110.950867,398.363403 
	C108.835533,398.358795 106.723038,397.043304 104.609215,396.338623 
	C106.663467,395.750763 108.713707,394.669617 110.772598,394.652863 
	C127.730354,394.515167 144.689728,394.575073 162.186203,394.575073 
	C162.186203,387.440521 162.181061,380.653107 162.190628,373.865692 
	C162.192490,372.535645 162.024597,371.142975 162.368546,369.899048 
	C162.576233,369.147949 163.619522,368.627899 164.287323,368.004028 
	C164.896042,368.680023 165.985458,369.325592 166.030609,370.037354 
	C166.230515,373.189880 166.130493,376.361420 166.138855,380.019501 
z"/>
<path fill="#DADADA" opacity="1.000000" stroke="none" 
	d="
M127.000046,293.692688 
	C120.666992,293.695007 114.825340,293.870667 109.006432,293.584290 
	C107.447838,293.507538 105.958626,292.021057 104.437546,291.181732 
	C105.928352,290.480988 107.413445,289.185638 108.910843,289.171234 
	C124.408859,289.022186 139.908844,289.079193 155.408295,289.080048 
	C168.741150,289.080780 182.074020,289.083099 195.406876,289.084625 
	C197.033615,289.084808 198.660355,289.084656 200.600891,289.084656 
	C200.600891,281.213531 200.478699,273.895447 200.709152,266.588440 
	C200.752640,265.209717 202.199661,263.875244 202.999039,262.520355 
	C203.610382,263.871796 204.717499,265.211334 204.750305,266.576660 
	C204.925751,273.878510 204.833054,281.186768 204.833054,288.790070 
	C235.712341,288.790070 266.276489,288.790070 297.429260,288.790070 
	C297.429260,282.417023 297.428864,276.143951 297.429596,269.870911 
	C297.429749,268.537628 297.171875,267.132690 297.511230,265.891541 
	C297.841522,264.683563 298.785248,263.643341 299.459656,262.529449 
	C300.134460,263.679047 301.365997,264.815460 301.393555,265.980377 
	C301.570648,273.467041 301.484039,280.959900 301.484039,289.073273 
	C303.531281,289.073273 305.309692,289.073242 307.088135,289.073273 
	C335.253815,289.073578 363.419464,289.072601 391.585144,289.078156 
	C392.916901,289.078430 394.313141,288.904999 395.556946,289.251648 
	C396.337677,289.469177 397.519928,290.650818 397.407440,291.147552 
	C397.199463,292.066193 396.297455,293.293030 395.460846,293.503723 
	C393.888000,293.899963 392.156128,293.689026 390.490387,293.689117 
	C302.826935,293.693054 215.163452,293.692657 127.000046,293.692688 
z"/>
<path fill="#050303" opacity="1.000000" stroke="none" 
	d="
M74.993515,171.000000 
	C75.172409,171.004166 75.351295,171.008316 75.805534,171.447189 
	C77.045044,172.268692 78.007996,172.988251 78.973526,172.991714 
	C90.996788,173.035004 103.020432,172.974304 115.060028,173.369629 
	C115.323471,182.077576 115.627792,190.355087 115.792336,198.635376 
	C115.865852,202.335022 114.478386,204.442657 110.138054,204.098404 
	C107.138542,203.860504 104.056763,204.659866 101.011749,204.995697 
	C100.626915,205.000565 100.242073,205.005402 99.249962,204.700958 
	C91.153084,204.324951 83.655289,204.441574 76.177635,204.107407 
	C72.867134,203.959488 71.622757,205.374634 70.504219,208.172516 
	C68.996483,211.943924 66.892418,215.476929 65.044266,219.112244 
	C64.707329,215.749008 64.370392,212.385757 64.108055,208.196594 
	C63.199959,206.238068 62.272186,205.050888 61.217648,203.989685 
	C60.331226,203.097656 58.496223,202.382858 58.463909,201.536789 
	C58.303368,197.333450 58.600609,193.112595 59.135010,188.908539 
	C61.693615,187.940445 63.853821,186.961731 66.014030,185.983017 
	C66.014030,185.983017 66.003929,186.005585 66.363556,186.054657 
	C68.050140,185.229767 70.047462,184.648849 70.581116,183.428085 
	C72.337547,179.410248 73.563690,175.160614 74.993515,171.000000 
z"/>
<path fill="#FAF7F7" opacity="1.000000" stroke="none" 
	d="
M324.621582,59.901234 
	C331.200806,58.221260 337.401917,56.748169 343.312653,55.344055 
	C354.319244,70.342560 364.987000,84.879341 376.223175,100.190704 
	C367.151337,102.370262 358.606293,104.423264 349.879059,106.520035 
	C339.111755,91.842621 328.280792,77.078400 316.744171,61.352299 
	C319.740082,60.855255 321.991760,60.481682 324.621582,59.901234 
z"/>
<path fill="#FAF7F7" opacity="1.000000" stroke="none" 
	d="
M384.256409,45.355507 
	C388.541321,44.510883 392.430695,43.491119 395.956543,42.566662 
	C406.926361,57.614456 417.917725,72.691849 429.081787,88.006119 
	C419.078247,90.097816 410.353271,91.922173 402.383911,93.588524 
	C391.090454,78.283180 380.464539,63.882477 369.712982,49.311569 
	C374.337097,47.961323 379.098969,46.570847 384.256409,45.355507 
z"/>
<path fill="#FAF7F7" opacity="1.000000" stroke="none" 
	d="
M246.594727,130.678192 
	C245.207947,130.299866 243.782959,130.222275 243.224991,129.486877 
	C236.029358,120.002693 228.948776,110.431061 221.857681,100.867760 
	C218.519196,96.365364 215.220520,91.833443 211.320541,86.520264 
	C220.656296,84.429024 229.266159,82.500381 237.873840,80.572227 
	C248.759003,95.340912 259.539520,109.967628 270.734222,125.156288 
	C262.548584,127.055763 254.754044,128.864487 246.594727,130.678192 
z"/>
<path fill="#FAF8F8" opacity="1.000000" stroke="none" 
	d="
M289.400360,108.596870 
	C280.901367,96.895325 272.587158,85.504829 264.181396,73.988884 
	C272.580963,71.985596 279.888214,70.055267 287.292267,68.626266 
	C288.881104,68.319603 291.526886,69.296791 292.489014,70.579926 
	C302.781982,84.307076 312.834167,98.214806 323.167175,112.367149 
	C315.159821,114.617874 307.499878,116.905769 299.744659,118.804482 
	C298.590393,119.087074 296.644135,117.850769 295.662018,116.772652 
	C293.438263,114.331581 291.587585,111.550644 289.400360,108.596870 
z"/>
<path fill="#FAF7F7" opacity="1.000000" stroke="none" 
	d="
M105.358482,111.778961 
	C114.165085,109.671280 122.971687,107.563599 132.275848,105.641006 
	C141.222153,117.411331 149.754395,128.937164 158.064774,140.620834 
	C160.325470,143.799164 161.917526,147.453094 163.816467,150.888763 
	C158.378632,151.961960 152.943268,153.047729 147.502075,154.103546 
	C144.327728,154.719498 141.144089,155.287537 137.521683,155.543671 
	C136.434052,154.043030 135.789368,152.875900 135.144684,151.708755 
	C134.708725,151.131149 134.272751,150.553558 133.501404,149.543365 
	C132.708725,148.352600 132.251434,147.594391 131.794144,146.836197 
	C124.480141,136.836334 117.175713,126.829445 109.839508,116.845894 
	C108.960083,115.649109 107.908058,114.579163 106.611313,113.016792 
	C105.977234,112.315086 105.667854,112.047028 105.358482,111.778961 
z"/>
<path fill="#F9F7F7" opacity="1.000000" stroke="none" 
	d="
M221.076630,174.113663 
	C215.518265,187.004089 209.676636,199.781799 204.488846,212.819672 
	C200.137726,223.754868 200.475449,223.888947 189.020981,223.887115 
	C183.884598,223.886292 178.748230,223.886978 172.568787,223.886978 
	C175.127380,217.904343 177.471909,212.422272 180.008621,206.360580 
	C180.429642,205.186600 180.658478,204.592209 180.887299,203.997818 
	C183.662628,197.612930 186.437988,191.228027 189.509460,184.304596 
	C189.906525,183.190491 190.007477,182.614944 190.108414,182.039398 
	C190.975052,180.196564 191.841690,178.353714 192.921570,175.930664 
	C193.229980,174.957367 193.325150,174.564270 193.636017,174.054779 
	C194.062607,173.668808 194.162781,173.362991 194.152283,173.020905 
	C202.735382,173.096344 211.318466,173.171783 220.355591,173.441681 
	C220.898636,173.795349 220.987640,173.954514 221.076630,174.113663 
z"/>
<path fill="#F9F7F7" opacity="1.000000" stroke="none" 
	d="
M411.123505,173.006058 
	C418.604858,173.116119 426.088074,173.163681 433.565826,173.391769 
	C434.970947,173.434631 436.354065,174.198074 437.444153,175.205688 
	C435.725098,179.173721 434.309174,182.565018 432.893250,185.956314 
	C428.052734,197.334625 423.153076,208.688446 418.417023,220.110062 
	C417.354858,222.671509 416.208710,224.081680 413.056305,223.967758 
	C405.475555,223.693817 397.878235,223.879059 389.624115,223.879059 
	C396.617706,207.116531 403.354218,190.970245 410.341248,174.359039 
	C410.769012,173.598099 410.946259,173.302078 411.123505,173.006058 
z"/>
<path fill="#FAF8F8" opacity="1.000000" stroke="none" 
	d="
M158.935501,98.984680 
	C167.659531,96.941460 176.383545,94.898239 185.017853,92.876030 
	C195.908722,107.697906 206.828232,122.558746 218.068283,137.855820 
	C209.252838,139.635498 201.028336,141.295883 192.064850,142.961777 
	C187.389923,137.857925 183.347549,132.826431 179.541214,127.622284 
	C172.598831,118.130394 165.796356,108.536186 158.935501,98.984680 
z"/>
<path fill="#080505" opacity="1.000000" stroke="none" 
	d="
M158.542450,98.991257 
	C165.796356,108.536186 172.598831,118.130394 179.541214,127.622284 
	C183.347549,132.826431 187.389923,137.857925 191.651611,143.085938 
	C189.745895,144.059479 187.568481,145.115860 185.272842,145.731445 
	C178.409912,147.571716 171.500717,149.239365 164.213013,150.931595 
	C161.917526,147.453094 160.325470,143.799164 158.064774,140.620834 
	C149.754395,128.937164 141.222153,117.411331 132.640106,105.491577 
	C141.054337,103.103989 149.601852,101.050919 158.542450,98.991257 
z"/>
<path fill="#F9F7F7" opacity="1.000000" stroke="none" 
	d="
M162.862915,183.949112 
	C158.821915,193.009323 154.442184,201.936646 150.822281,211.162094 
	C145.864136,223.798111 146.111435,223.895264 132.443100,223.896606 
	C128.121719,223.897034 123.800339,223.896667 118.344002,223.896667 
	C120.095261,219.817398 121.605141,216.300415 123.362732,212.240997 
	C123.673584,211.131271 123.736702,210.563950 123.799828,209.996643 
	C123.980431,209.602219 124.161034,209.207794 124.675270,208.296707 
	C125.700241,206.197128 126.391571,204.614197 127.082916,203.031265 
	C130.773361,194.300034 134.463806,185.568802 138.455292,176.296387 
	C138.843140,175.190506 138.929962,174.625809 139.187164,173.921753 
	C139.357559,173.782364 139.274750,173.349930 139.274750,173.349930 
	C147.826782,173.311646 156.378830,173.273376 165.633453,173.392059 
	C166.487396,173.732880 166.638733,173.916718 166.790085,174.100571 
	C165.815674,176.453812 164.841263,178.807068 163.567291,181.691742 
	C163.132782,182.798477 162.997849,183.373795 162.862915,183.949112 
z"/>
<path fill="#F9F7F7" opacity="1.000000" stroke="none" 
	d="
M275.239746,174.053787 
	C268.781647,189.139984 262.238373,204.190720 255.930969,219.339661 
	C254.520752,222.726654 252.741013,224.163406 248.920135,223.983826 
	C241.779877,223.648193 234.612579,223.887344 226.755035,223.887344 
	C233.591583,207.879227 240.258820,192.267548 247.279907,176.015625 
	C249.084579,174.720581 250.512650,173.563385 251.990097,173.496475 
	C259.030853,173.177734 266.084991,173.155319 273.134369,173.027481 
	C273.134369,173.027481 273.563599,173.095764 274.034424,173.062149 
	C274.750092,173.370285 274.994934,173.712036 275.239746,174.053787 
z"/>
<path fill="#FAF9F9" opacity="1.000000" stroke="none" 
	d="
M383.059357,174.090988 
	C381.188110,179.035797 379.448029,184.035172 377.418701,188.914230 
	C373.026611,199.473923 368.558777,210.004135 363.920685,220.457108 
	C363.298645,221.859024 361.545380,223.669464 360.257721,223.717133 
	C352.187744,224.015747 344.101288,223.868057 335.299988,223.868057 
	C342.416382,207.054718 349.241150,190.930328 356.078491,174.529373 
	C356.091064,174.252823 356.308624,174.165924 356.756226,174.134064 
	C365.822357,174.098465 374.440857,174.094727 383.059357,174.090988 
z"/>
<path fill="#F8F7F7" opacity="1.000000" stroke="none" 
	d="
M329.271057,174.013458 
	C323.898895,186.665405 317.499115,199.000854 313.474609,212.067871 
	C310.162170,222.823074 304.060242,225.289948 294.204132,223.958313 
	C290.120636,223.406601 285.900452,223.866791 281.011444,223.866791 
	C287.810791,207.937500 294.456360,192.368561 301.390320,176.267929 
	C301.739105,175.165283 301.799530,174.594330 302.296204,173.809082 
	C311.578674,173.734344 320.424866,173.873901 329.271057,174.013458 
z"/>
<path fill="#EDEDED" opacity="1.000000" stroke="none" 
	d="
M225.999954,342.086670 
	C233.799347,342.086670 241.098740,342.086670 248.886108,342.086670 
	C248.886108,334.285126 248.772018,326.835510 248.990036,319.395660 
	C249.029846,318.037354 250.423416,316.718689 251.192047,315.381714 
	C251.834946,316.682953 253.002319,317.971588 253.033997,319.287537 
	C253.213394,326.738953 253.120773,334.196899 253.120773,342.083282 
	C255.317200,342.083282 257.105591,342.083282 258.893982,342.083282 
	C303.057434,342.083282 347.220856,342.083313 391.384308,342.083130 
	C392.550781,342.083130 393.776093,341.858643 394.866028,342.146881 
	C395.819489,342.399017 396.620789,343.226532 397.489319,343.799866 
	C396.583496,344.539734 395.780640,345.567200 394.742950,345.938477 
	C393.708649,346.308563 392.438812,346.020996 391.272247,346.020996 
	C297.945740,346.019806 204.619217,346.018555 111.292709,346.017334 
	C110.959412,346.017334 110.593643,346.109131 110.298088,346.003723 
	C108.367264,345.315155 106.451630,344.584015 104.531036,343.866730 
	C106.356812,343.275604 108.181236,342.173492 110.008560,342.168671 
	C148.505508,342.066925 187.002777,342.088928 225.999954,342.086670 
z"/>
<path fill="#F3F2F3" opacity="1.000000" stroke="none" 
	d="
M65.068153,219.504028 
	C66.892418,215.476929 68.996483,211.943924 70.504219,208.172516 
	C71.622757,205.374634 72.867134,203.959488 76.177635,204.107407 
	C83.655289,204.441574 91.153084,204.324951 98.961365,204.695190 
	C97.019249,210.288910 94.924126,215.660675 92.386978,220.814865 
	C91.710548,222.189026 89.754478,223.620468 88.258072,223.773209 
	C84.004356,224.207352 79.684654,223.994919 74.880264,224.235840 
	C74.369606,224.434647 74.174049,224.576782 74.174049,224.576782 
	C70.941742,224.576782 67.709427,224.576782 63.947639,224.576782 
	C64.373299,222.835709 64.732674,221.365753 65.068153,219.504028 
z"/>
<path fill="#F7F3F4" opacity="1.000000" stroke="none" 
	d="
M63.853153,139.065369 
	C63.853153,139.065369 63.745636,138.938187 63.575096,138.527924 
	C59.988747,133.919098 56.572937,129.720535 53.157127,125.521996 
	C54.624065,124.675949 56.003006,123.564621 57.577362,123.042419 
	C60.340000,122.126068 63.221470,121.567070 66.054756,120.864822 
	C70.602264,119.737694 75.151077,118.615784 79.870407,117.562271 
	C80.533951,118.472534 81.026428,119.312187 81.518906,120.151848 
	C82.486809,121.654221 83.454720,123.156593 84.756035,125.148506 
	C85.809479,126.397781 86.529510,127.157509 87.249542,127.917244 
	C88.438904,129.871689 89.628265,131.826126 91.129440,134.292969 
	C83.179115,136.221085 75.338631,138.122559 66.894684,140.111847 
	C65.478531,139.821564 64.665840,139.443466 63.853153,139.065369 
z"/>
<path fill="#54000A" opacity="1.000000" stroke="none" 
	d="
M79.982430,440.159363 
	C195.026154,440.443085 310.069855,440.726807 425.585663,441.229004 
	C426.057739,441.447479 426.080322,441.812744 426.080322,441.812744 
	C415.091095,441.873169 404.101898,441.986481 393.112671,441.985718 
	C287.690796,441.978271 182.268936,441.951599 76.385757,441.689209 
	C75.924438,441.447937 75.929787,441.064117 76.281898,441.032410 
	C77.750153,440.720245 78.866295,440.439819 79.982430,440.159363 
z"/>
<path fill="#771E22" opacity="1.000000" stroke="none" 
	d="
M75.929787,441.064117 
	C75.929787,441.064117 75.924438,441.447937 75.913574,441.638672 
	C75.269814,440.436005 74.100906,439.047943 74.087051,437.648438 
	C73.950325,423.844055 74.000923,410.037750 74.006691,396.231995 
	C74.030457,339.346100 74.057114,282.460175 74.128380,225.075531 
	C74.174049,224.576782 74.369606,224.434647 74.491119,224.434479 
	C74.762291,228.080307 75.040459,231.726212 75.042542,235.372284 
	C75.080429,301.602386 75.085106,367.832520 75.095024,434.925537 
	C75.372055,437.546997 75.650917,439.305542 75.929787,441.064117 
z"/>
<path fill="#75171F" opacity="1.000000" stroke="none" 
	d="
M426.481995,441.792816 
	C426.080322,441.812744 426.057739,441.447479 426.056580,441.265106 
	C426.359375,439.665497 426.928741,438.248352 426.929108,436.831055 
	C426.948212,366.517029 426.918488,296.203003 427.157776,225.385132 
	C427.628876,224.900284 427.836334,224.919266 428.043762,224.938263 
	C428.024078,295.385681 428.012665,365.833130 427.938660,436.280487 
	C427.936737,438.111664 427.250671,439.942108 426.481995,441.792816 
z"/>
<path fill="#050303" opacity="1.000000" stroke="none" 
	d="
M53.114880,125.941231 
	C56.572937,129.720535 59.988747,133.919098 63.539085,138.452835 
	C62.046059,138.945099 60.418503,139.102173 58.569443,139.280624 
	C58.569443,142.119598 58.569443,144.765060 58.569443,148.181717 
	C56.854477,146.352554 55.730499,145.153732 53.595974,142.877090 
	C54.476372,148.935883 51.899250,154.795197 60.918282,156.205368 
	C55.510979,159.907684 51.113228,162.918777 46.358467,165.965668 
	C46.001450,166.001450 45.983612,165.988525 45.983612,165.988525 
	C48.106022,163.156021 50.228439,160.323502 52.350853,157.490997 
	C52.755516,157.749374 53.160175,158.007751 53.564838,158.266129 
	C53.039547,155.039139 52.640884,151.784897 51.954384,148.592575 
	C51.225128,145.201447 50.258896,141.971191 55.477020,141.433411 
	C55.904427,141.389374 56.568001,138.905762 56.303078,137.742081 
	C55.428833,133.902100 54.178543,130.147720 53.114880,125.941231 
z"/>
<path fill="#350F0F" opacity="1.000000" stroke="none" 
	d="
M329.722260,174.034592 
	C320.424866,173.873901 311.578674,173.734344 301.985718,173.827316 
	C300.824371,174.064590 300.409790,174.069336 299.995209,174.074081 
	C293.642242,174.048080 287.289246,174.022095 280.134583,173.995636 
	C278.888245,174.007202 278.443634,174.019257 277.999023,174.031342 
	C277.309204,174.048218 276.619415,174.065109 275.584656,174.067902 
	C274.994934,173.712036 274.750092,173.370285 274.205200,172.927795 
	C276.211914,172.894882 278.520081,173.052368 280.825226,173.016129 
	C297.014069,172.761551 313.201538,172.328629 329.390991,172.241394 
	C337.978180,172.195129 346.568451,172.726822 355.606079,173.321594 
	C356.139404,173.819046 356.223999,173.992477 356.308624,174.165924 
	C356.308624,174.165924 356.091064,174.252823 356.018036,174.162277 
	C347.354492,174.066391 338.763977,174.061066 329.722260,174.034592 
z"/>
<path fill="#050303" opacity="1.000000" stroke="none" 
	d="
M51.836880,187.004456 
	C46.335464,184.976288 43.868881,181.702103 44.058369,175.945480 
	C44.163521,172.750931 44.868587,169.576126 45.643436,166.190475 
	C45.983612,165.988525 46.001450,166.001450 46.009880,166.009766 
	C45.891113,169.357986 45.684116,172.698059 45.691708,176.037659 
	C45.693653,176.894043 46.326923,178.467957 46.748116,178.494934 
	C51.799202,178.818405 52.070091,184.628677 55.741226,186.835266 
	C55.255852,187.593170 54.911690,187.788177 54.567528,187.983185 
	C54.567532,187.983185 54.363857,188.018997 54.234802,187.733398 
	C53.349457,187.300034 52.593166,187.152237 51.836880,187.004456 
z"/>
<path fill="#050303" opacity="1.000000" stroke="none" 
	d="
M104.943787,111.847672 
	C105.667854,112.047028 105.977234,112.315086 106.313026,112.806465 
	C105.186157,114.071213 104.167023,115.346695 102.849609,116.101799 
	C100.610016,117.385475 98.136192,118.253014 95.844612,119.455177 
	C92.045555,121.448181 89.562225,118.841072 86.410049,117.026222 
	C85.999779,116.999458 85.944748,116.942291 85.944748,116.942291 
	C92.139526,115.266983 98.334312,113.591675 104.943787,111.847672 
z"/>
<path fill="#7D4E52" opacity="1.000000" stroke="none" 
	d="
M89.226471,166.098389 
	C97.262733,164.186676 105.298988,162.274948 114.049835,160.200500 
	C116.259026,160.349731 117.753609,160.661697 119.248199,160.973663 
	C112.708328,162.656998 106.195312,164.455826 99.619514,165.984619 
	C94.937599,167.073090 90.171181,167.798080 85.581650,168.342758 
	C86.889381,167.366287 88.057930,166.732330 89.226471,166.098389 
z"/>
<path fill="#050303" opacity="1.000000" stroke="none" 
	d="
M119.627113,160.919495 
	C117.753609,160.661697 116.259026,160.349731 114.382248,160.016327 
	C114.263847,158.271774 114.527641,156.548660 114.862503,154.361343 
	C119.593262,160.290222 130.332642,158.644409 134.733948,151.848511 
	C135.789368,152.875900 136.434052,154.043030 137.093018,155.523392 
	C133.009720,157.224487 128.931335,158.673553 124.804649,159.968628 
	C123.263123,160.452393 121.608879,160.576965 119.627113,160.919495 
z"/>
<path fill="#350F0F" opacity="1.000000" stroke="none" 
	d="
M272.660431,172.945190 
	C266.084991,173.155319 259.030853,173.177734 251.990097,173.496475 
	C250.512650,173.563385 249.084579,174.720581 247.327988,175.668762 
	C247.022217,175.962143 246.838303,175.502151 246.699738,174.996552 
	C246.042114,174.329559 245.523071,174.168198 245.004013,174.006821 
	C238.315430,174.011841 231.626862,174.016846 224.218536,174.030731 
	C223.331329,174.055267 223.163879,174.070892 222.996414,174.086533 
	C222.569870,174.089111 222.143341,174.091690 221.396713,174.103958 
	C220.987640,173.954514 220.898636,173.795349 220.806000,173.362244 
	C227.610077,173.071320 234.417847,173.066010 241.225479,173.034561 
	C251.545853,172.986893 261.866150,172.921036 272.660431,172.945190 
z"/>
<path fill="#3F3838" opacity="1.000000" stroke="none" 
	d="
M101.477692,204.973892 
	C104.056763,204.659866 107.138542,203.860504 110.138054,204.098404 
	C114.478386,204.442657 115.865852,202.335022 115.792336,198.635376 
	C115.627792,190.355087 115.323471,182.077576 115.031555,173.186630 
	C114.987022,172.574326 114.976616,172.203308 114.976616,172.203308 
	C115.572327,172.262451 116.168030,172.321609 117.012276,172.953644 
	C117.323174,173.747772 117.385536,173.969025 117.375580,174.497589 
	C117.387085,175.213745 117.470917,175.622559 117.554749,176.031372 
	C117.442619,183.638748 117.042809,191.256805 117.325073,198.849518 
	C117.497414,203.485214 116.352669,205.598541 111.373703,205.004486 
	C108.272415,204.634445 105.089775,204.946274 101.477692,204.973892 
z"/>
<path fill="#771E22" opacity="1.000000" stroke="none" 
	d="
M54.867592,188.282211 
	C54.911690,187.788177 55.255852,187.593170 55.799736,187.179810 
	C56.407967,187.038101 56.816475,187.114716 57.585693,187.479538 
	C58.209808,188.144470 58.473213,188.521194 58.736618,188.897919 
	C58.600609,193.112595 58.303368,197.333450 58.463909,201.536789 
	C58.496223,202.382858 60.331226,203.097656 61.217648,203.989685 
	C62.272186,205.050888 63.199959,206.238068 64.103851,207.793335 
	C61.981918,206.810654 59.938805,205.405258 56.975304,203.366776 
	C56.975304,200.676086 57.130852,196.697662 56.892376,192.743011 
	C56.806938,191.326233 55.770206,189.966843 54.867592,188.282211 
z"/>
<path fill="#3F3838" opacity="1.000000" stroke="none" 
	d="
M74.938614,170.724854 
	C73.563690,175.160614 72.337547,179.410248 70.581116,183.428085 
	C70.047462,184.648849 68.050140,185.229767 66.351196,186.054947 
	C68.642448,180.602707 71.305687,175.199249 73.984146,169.399063 
	C73.999359,169.002335 74.050705,169.069366 74.050705,169.069366 
	C74.328377,169.529480 74.606049,169.989594 74.938614,170.724854 
z"/>
<path fill="#050303" opacity="1.000000" stroke="none" 
	d="
M428.333252,224.662018 
	C427.836334,224.919266 427.628876,224.900284 427.109833,224.915833 
	C426.428589,224.450699 426.058960,223.951035 425.689331,223.451355 
	C427.046906,222.983017 428.475098,221.980820 429.748444,222.149231 
	C433.183533,222.603577 434.923828,220.836517 436.742188,218.291565 
	C437.419952,218.699585 437.677551,218.886978 437.996124,218.990601 
	C439.857391,222.062210 438.423309,223.530060 435.409790,223.950607 
	C433.170807,224.263077 430.886719,224.252457 428.333252,224.662018 
z"/>
<path fill="#A42E40" opacity="1.000000" stroke="none" 
	d="
M114.512283,172.126892 
	C114.976616,172.203308 114.987022,172.574326 115.015503,172.757324 
	C103.020432,172.974304 90.996788,173.035004 78.973526,172.991714 
	C78.007996,172.988251 77.045044,172.268692 76.073730,171.457794 
	C77.976692,171.353851 79.884232,171.932281 81.797371,171.951416 
	C92.546822,172.058960 103.297615,172.031738 114.512283,172.126892 
z"/>
<path fill="#050303" opacity="1.000000" stroke="none" 
	d="
M433.197388,186.085739 
	C434.309174,182.565018 435.725098,179.173721 437.451935,175.572067 
	C437.863770,179.340225 437.964661,183.318726 437.782532,187.661728 
	C437.499512,188.026230 437.033051,188.014175 437.033051,188.014175 
	C435.855865,187.414505 434.678711,186.814835 433.197388,186.085739 
z"/>
<path fill="#050303" opacity="1.000000" stroke="none" 
	d="
M76.281898,441.032410 
	C75.650917,439.305542 75.372055,437.546997 75.160294,435.389099 
	C76.849396,434.989807 78.471397,434.989807 80.877792,434.989807 
	C80.549744,436.767334 80.309319,438.070068 80.025665,439.766113 
	C78.866295,440.439819 77.750153,440.720245 76.281898,441.032410 
z"/>
<path fill="#350F0F" opacity="1.000000" stroke="none" 
	d="
M437.028748,188.481384 
	C437.033051,188.014175 437.499512,188.026230 437.731842,188.043274 
	C437.967926,198.058777 437.971680,208.057251 437.985779,218.523163 
	C437.677551,218.886978 437.419952,218.699585 437.107941,218.215302 
	C437.003204,208.317657 437.013824,198.633118 437.028748,188.481384 
z"/>
<path fill="#350F0F" opacity="1.000000" stroke="none" 
	d="
M167.207565,174.080185 
	C166.638733,173.916718 166.487396,173.732880 166.083130,173.295944 
	C175.121155,172.822296 184.412079,172.601746 193.927643,172.701050 
	C194.162781,173.362991 194.062607,173.668808 193.281586,174.027969 
	C192.474884,174.101685 192.238327,174.085815 192.001755,174.069946 
	C190.933243,174.043304 189.864716,174.016663 188.147858,173.995178 
	C187.499496,174.000336 187.003815,174.007553 187.003815,174.007553 
	C180.544220,174.024979 174.084641,174.042389 167.207565,174.080185 
z"/>
<path fill="#350F0F" opacity="1.000000" stroke="none" 
	d="
M410.903290,172.685211 
	C410.946259,173.302078 410.769012,173.598099 410.339233,173.983810 
	C402.164856,174.073502 394.243011,174.073502 386.321167,174.073502 
	C386.313721,173.503784 386.306244,172.934067 386.298798,172.364349 
	C394.426880,172.364349 402.554993,172.364349 410.903290,172.685211 
z"/>
<path fill="#C0787D" opacity="1.000000" stroke="none" 
	d="
M356.756226,174.134064 
	C356.223999,173.992477 356.139404,173.819046 356.080139,173.357300 
	C365.037628,173.103622 373.969788,173.138260 382.980652,173.631943 
	C374.440857,174.094727 365.822357,174.098465 356.756226,174.134064 
z"/>
<path fill="#050303" opacity="1.000000" stroke="none" 
	d="
M87.669342,159.520218 
	C85.930542,158.979691 84.503700,158.247559 83.076851,157.515411 
	C83.081055,157.014236 83.085258,156.513046 83.089462,156.011856 
	C84.533081,155.450760 85.976700,154.889648 87.420319,154.328552 
	C87.607307,155.995239 87.794296,157.661926 87.669342,159.520218 
z"/>
<path fill="#350F0F" opacity="1.000000" stroke="none" 
	d="
M117.447899,174.190247 
	C117.385536,173.969025 117.323174,173.747772 117.214508,173.183960 
	C124.410118,172.772049 131.652039,172.702698 139.084351,172.991638 
	C139.274750,173.349930 139.357559,173.782364 138.850662,173.910797 
	C137.894836,174.048462 137.445923,174.057693 136.996994,174.066940 
	C131.975510,174.046921 126.954018,174.026886 121.103989,174.002258 
	C119.332932,174.061859 118.390419,174.126053 117.447899,174.190247 
z"/>
<path fill="#050303" opacity="1.000000" stroke="none" 
	d="
M98.878067,143.574051 
	C97.384529,143.466431 95.965836,143.005295 94.547134,142.544159 
	C95.201431,141.487198 95.855728,140.430252 96.510025,139.373306 
	C97.324318,140.655716 98.138611,141.938141 98.878067,143.574051 
z"/>
<path fill="#050303" opacity="1.000000" stroke="none" 
	d="
M126.758286,202.984406 
	C126.391571,204.614197 125.700241,206.197128 124.757416,207.981781 
	C123.936890,206.169647 123.367836,204.155792 122.421608,200.807114 
	C124.850929,202.097107 125.642303,202.517319 126.758286,202.984406 
z"/>
<path fill="#050303" opacity="1.000000" stroke="none" 
	d="
M112.345032,148.100525 
	C112.117523,146.372971 111.969070,144.944031 111.820610,143.515106 
	C112.387161,143.398666 112.953720,143.282227 113.520271,143.165771 
	C114.122826,145.082016 114.725388,146.998260 115.683525,150.045288 
	C113.779488,149.083694 113.101776,148.741440 112.345032,148.100525 
z"/>
<path fill="#050303" opacity="1.000000" stroke="none" 
	d="
M81.912857,120.113724 
	C81.026428,119.312187 80.533951,118.472534 80.199341,117.409698 
	C81.912148,117.118340 83.467072,117.050156 85.483376,116.962135 
	C85.944748,116.942291 85.999779,116.999458 86.027847,117.028366 
	C84.806206,118.063385 83.556503,119.069489 81.912857,120.113724 
z"/>
<path fill="#3F3838" opacity="1.000000" stroke="none" 
	d="
M59.135010,188.908539 
	C58.473213,188.521194 58.209808,188.144470 57.892296,187.536072 
	C60.289040,186.853333 62.739895,186.402252 65.602386,185.967102 
	C63.853821,186.961731 61.693615,187.940445 59.135010,188.908539 
z"/>
<path fill="#050303" opacity="1.000000" stroke="none" 
	d="
M69.638664,149.664047 
	C70.857613,148.171112 72.144104,146.969833 73.631561,145.580902 
	C74.639839,149.354538 73.097542,150.478439 69.638664,149.664047 
z"/>
<path fill="#050303" opacity="1.000000" stroke="none" 
	d="
M63.630531,139.469543 
	C64.665840,139.443466 65.478531,139.821564 66.567490,140.267426 
	C66.299789,141.472977 65.755829,142.610794 65.211868,143.748611 
	C64.610550,142.456985 64.009232,141.165344 63.630531,139.469543 
z"/>
<path fill="#050303" opacity="1.000000" stroke="none" 
	d="
M131.409180,146.949814 
	C132.251434,147.594391 132.708725,148.352600 133.166519,149.384415 
	C131.913010,149.838776 130.658981,150.019516 129.404953,150.200256 
	C129.944702,149.154633 130.484467,148.109039 131.409180,146.949814 
z"/>
<path fill="#050303" opacity="1.000000" stroke="none" 
	d="
M88.850113,166.036346 
	C88.057930,166.732330 86.889381,167.366287 85.371674,168.006866 
	C84.846054,167.209503 84.669586,166.405502 84.493126,165.601486 
	C85.820007,165.725754 87.146881,165.850021 88.850113,166.036346 
z"/>
<path fill="#050303" opacity="1.000000" stroke="none" 
	d="
M117.375580,174.497589 
	C118.390419,174.126053 119.332932,174.061859 120.637192,174.013702 
	C120.063019,174.688629 119.127113,175.347504 117.872971,176.018860 
	C117.470917,175.622559 117.387085,175.213745 117.375580,174.497589 
z"/>
<path fill="#050303" opacity="1.000000" stroke="none" 
	d="
M112.014854,139.417267 
	C112.209755,140.226944 112.085678,140.983536 111.961594,141.740143 
	C111.528671,141.652557 111.095741,141.564972 110.662819,141.477386 
	C111.007172,140.772980 111.351517,140.068588 112.014854,139.417267 
z"/>
<path fill="#050303" opacity="1.000000" stroke="none" 
	d="
M74.034866,169.024475 
	C73.158791,168.783630 72.247200,168.520660 71.335609,168.257706 
	C71.512726,167.879883 71.689850,167.502060 71.866966,167.124237 
	C72.552170,167.548416 73.237366,167.972610 73.986633,168.733078 
	C74.050705,169.069366 73.999359,169.002335 74.034866,169.024475 
z"/>
<path fill="#050303" opacity="1.000000" stroke="none" 
	d="
M78.477615,168.986694 
	C79.056961,168.591263 79.632469,168.494064 80.207977,168.396866 
	C80.202644,168.804459 80.197311,169.212067 80.191986,169.619659 
	C79.619247,169.508087 79.046509,169.396500 78.477615,168.986694 
z"/>
<path fill="#050303" opacity="1.000000" stroke="none" 
	d="
M87.427856,127.538452 
	C86.529510,127.157509 85.809479,126.397781 85.043800,125.319717 
	C85.867500,125.720818 86.736839,126.440239 87.427856,127.538452 
z"/>
<path fill="#050303" opacity="1.000000" stroke="none" 
	d="
M180.532410,204.007233 
	C180.658478,204.592209 180.429642,205.186600 180.032532,205.963242 
	C179.418121,205.803207 178.971985,205.460922 178.525848,205.118622 
	C179.076401,204.751297 179.626953,204.383972 180.532410,204.007233 
z"/>
<path fill="#050303" opacity="1.000000" stroke="none" 
	d="
M123.516785,210.042786 
	C123.736702,210.563950 123.673584,211.131271 123.376450,211.873749 
	C123.172874,211.395584 123.203308,210.742264 123.516785,210.042786 
z"/>
<path fill="#050303" opacity="1.000000" stroke="none" 
	d="
M63.544456,154.381500 
	C63.658142,153.942291 63.937248,153.675903 64.216354,153.409531 
	C64.326622,153.525070 64.436882,153.640610 64.547134,153.756149 
	C64.268051,154.022202 63.988964,154.288254 63.544456,154.381500 
z"/>
<path fill="#050303" opacity="1.000000" stroke="none" 
	d="
M110.383865,136.457611 
	C109.942268,136.343369 109.674416,136.062820 109.406555,135.782288 
	C109.522682,135.671402 109.638817,135.560532 109.754959,135.449646 
	C110.022507,135.730209 110.290047,136.010757 110.383865,136.457611 
z"/>
<path fill="#771E22" opacity="1.000000" stroke="none" 
	d="
M52.013710,187.297638 
	C52.593166,187.152237 53.349457,187.300034 54.131954,187.744080 
	C53.502289,187.890488 52.846413,187.740646 52.013710,187.297638 
z"/>
<path fill="#050303" opacity="1.000000" stroke="none" 
	d="
M189.793213,182.065338 
	C190.007477,182.614944 189.906525,183.190491 189.566025,183.942871 
	C189.376984,183.443558 189.427490,182.767426 189.793213,182.065338 
z"/>
<path fill="#050303" opacity="1.000000" stroke="none" 
	d="
M163.173645,183.929977 
	C162.997849,183.373795 163.132782,182.798477 163.528427,182.073242 
	C163.687561,182.585815 163.585968,183.248337 163.173645,183.929977 
z"/>
<path fill="#050303" opacity="1.000000" stroke="none" 
	d="
M300.032593,174.381775 
	C300.409790,174.069336 300.824371,174.064590 301.549438,174.041595 
	C301.799530,174.594330 301.739105,175.165283 301.434631,175.902008 
	C300.817078,175.608337 300.443512,175.148895 300.032593,174.381775 
z"/>
<path fill="#050303" opacity="1.000000" stroke="none" 
	d="
M278.040802,174.323669 
	C278.443634,174.019257 278.888245,174.007202 279.666290,174.007309 
	C279.360687,174.218323 278.721619,174.417175 278.040802,174.323669 
z"/>
<path fill="#050303" opacity="1.000000" stroke="none" 
	d="
M137.039597,174.386322 
	C137.445923,174.057693 137.894836,174.048462 138.680267,174.050171 
	C138.929962,174.625809 138.843140,175.190506 138.521515,175.929382 
	C137.885208,175.637619 137.483704,175.171661 137.039597,174.386322 
z"/>
<path fill="#050303" opacity="1.000000" stroke="none" 
	d="
M113.614647,151.538940 
	C114.057808,151.653427 114.329308,151.932404 114.579819,152.229095 
	C114.586227,152.236679 114.362450,152.438644 114.246033,152.549957 
	C113.977432,152.268555 113.708839,151.987152 113.614647,151.538940 
z"/>
<path fill="#050303" opacity="1.000000" stroke="none" 
	d="
M68.381500,164.455536 
	C67.942322,164.341873 67.673225,164.065094 67.424919,163.770767 
	C67.418602,163.763275 67.640602,163.563187 67.756126,163.452927 
	C68.022186,163.731995 68.288246,164.011047 68.381500,164.455536 
z"/>
<path fill="#050303" opacity="1.000000" stroke="none" 
	d="
M108.308380,131.137085 
	C108.629196,131.018356 108.980812,131.112076 109.332436,131.205780 
	C109.001350,131.253708 108.670265,131.301636 108.308380,131.137085 
z"/>
<path fill="#050303" opacity="1.000000" stroke="none" 
	d="
M245.146423,174.232010 
	C245.523071,174.168198 246.042114,174.329559 246.648010,174.754303 
	C246.252838,174.830856 245.770828,174.644028 245.146423,174.232010 
z"/>
<path fill="#050303" opacity="1.000000" stroke="none" 
	d="
M223.016556,174.323364 
	C223.163879,174.070892 223.331329,174.055267 223.750656,174.054276 
	C223.839523,174.477753 223.676514,174.886581 223.513489,175.295410 
	C223.354568,175.050339 223.195633,174.805252 223.016556,174.323364 
z"/>
<path fill="#050303" opacity="1.000000" stroke="none" 
	d="
M266.529266,200.546082 
	C266.477570,200.576096 266.580963,200.516068 266.529266,200.546082 
z"/>
<path fill="#050303" opacity="1.000000" stroke="none" 
	d="
M192.138092,174.533035 
	C192.238327,174.085815 192.474884,174.101685 193.065872,174.144363 
	C193.325150,174.564270 193.229980,174.957367 192.943970,175.592529 
	C192.593582,175.555130 192.434006,175.275635 192.138092,174.533035 
z"/>
<path fill="#050303" opacity="1.000000" stroke="none" 
	d="
M187.092194,174.169571 
	C187.003815,174.007553 187.499496,174.000336 187.747131,174.008392 
	C187.723358,174.121506 187.451965,174.226547 187.092194,174.169571 
z"/>
</svg>